<?xml version="1.0" standalone="no"?>
<!DOCTYPE svg PUBLIC "-//W3C//DTD SVG 20010904//EN"
 "http://www.w3.org/TR/2001/REC-SVG-20010904/DTD/svg10.dtd">
<svg version="1.0" xmlns="http://www.w3.org/2000/svg"
 width="1333.000000pt" height="1333.000000pt" viewBox="0 0 1333.000000 1333.000000"
 preserveAspectRatio="xMidYMid meet">
<metadata>
Created by potrace 1.11, written by Peter Selinger 2001-2013
</metadata>
<g transform="translate(0.000000,1333.000000) scale(0.100000,-0.100000)"
fill="#000000" stroke="none">
<path d="M4293 9837 c-1305 -1306 -2373 -2376 -2373 -2380 0 -4 621 -628 1381
-1388 l1380 -1380 47 6 c26 3 54 8 62 10 8 2 33 6 54 10 21 3 48 7 60 10 12 2
38 7 58 10 21 2 57 9 80 14 24 5 61 12 83 15 41 6 130 22 175 31 27 5 186 33
235 41 17 2 57 10 90 16 33 6 67 12 75 13 8 1 31 5 50 9 57 10 472 84 510 90
19 3 45 8 56 10 12 2 39 7 60 11 72 11 99 16 114 20 8 2 35 7 60 10 25 3 52 8
60 10 8 2 31 7 50 10 19 3 85 15 145 25 61 11 126 22 145 26 19 3 69 12 110
19 41 8 91 16 110 19 19 3 98 17 174 31 77 14 142 25 144 25 6 0 12 20 -123
-380 -64 -190 -118 -352 -120 -360 -2 -8 -37 -114 -78 -235 -41 -121 -95 -283
-121 -360 -25 -77 -66 -201 -92 -275 -25 -74 -46 -139 -48 -145 -1 -5 -15 -48
-31 -95 -16 -47 -30 -87 -30 -90 0 -3 -23 -70 -50 -150 -27 -80 -50 -147 -50
-150 -3 -18 -77 -230 -81 -230 -2 0 -360 356 -794 790 l-790 790 -396 -396
-396 -397 1188 -1188 1189 -1189 2372 2373 c1305 1304 2373 2375 2373 2380 0
4 -622 629 -1381 1388 l-1381 1381 -42 -6 c-22 -3 -52 -8 -66 -11 -14 -3 -106
-19 -204 -36 -180 -31 -199 -34 -246 -44 -30 -6 -58 -11 -170 -30 -101 -17
-155 -26 -315 -55 -150 -27 -136 -24 -345 -60 -96 -17 -182 -33 -190 -35 -8
-2 -33 -7 -55 -10 -23 -3 -52 -7 -65 -10 -47 -9 -245 -44 -420 -75 -96 -16
-185 -32 -196 -34 -12 -2 -39 -7 -60 -11 -22 -3 -52 -8 -69 -10 -16 -3 -50
-10 -75 -15 -25 -5 -61 -12 -80 -14 -19 -3 -44 -7 -55 -10 -11 -2 -40 -7 -65
-11 -25 -4 -55 -9 -67 -11 -13 -3 -23 -2 -23 1 0 2 16 51 36 107 20 57 37 108
38 113 1 6 11 35 21 65 11 30 20 57 20 60 0 3 18 57 40 120 22 63 40 117 40
120 0 3 9 30 20 60 11 30 20 57 20 60 0 3 9 30 20 60 11 30 20 57 20 60 3 19
548 1640 551 1640 2 0 360 -356 794 -790 l790 -790 396 396 396 397 -1188
1188 -1189 1188 -2372 -2372z"/>
</g>
</svg>
